<?xml version="1.0" encoding="UTF-8"?>
<svg version="1.1" xmlns="http://www.w3.org/2000/svg" width="317" height="398">
<path d="M0 0 C34.49798385 -0.06868896 68.99595207 -0.12154038 103.49398955 -0.15319599 C107.56817739 -0.15694804 111.6423651 -0.16083101 115.71655273 -0.16479492 C116.52763916 -0.16558185 117.33872558 -0.16636878 118.17439038 -0.16717956 C131.30184648 -0.18022817 144.42926311 -0.20387901 157.55669581 -0.23145839 C171.02987466 -0.25952775 184.50303285 -0.2761795 197.97623974 -0.28226548 C206.28777904 -0.28637875 214.59920676 -0.29936323 222.91071171 -0.3237494 C228.61271044 -0.33962549 234.3146516 -0.34439612 240.01667082 -0.34050413 C243.30488048 -0.33858548 246.59285472 -0.34314368 249.88103867 -0.35761642 C253.45135985 -0.37255992 257.02120509 -0.36894632 260.59153748 -0.36076355 C261.62365984 -0.36950207 262.6557822 -0.3782406 263.719181 -0.38724393 C272.64967177 -0.33198916 281.4929545 1.43083473 288 8 C293.53404435 15.58276506 296.02906447 22.60419396 295 32 C293.11274183 39.76540623 289.22663997 45.08943991 283 50 C278.43935366 52.58791681 273.69327659 54.64195298 268.875 56.6875 C267.49317419 57.29074727 266.11208351 57.89568092 264.73168945 58.50219727 C261.18271693 60.05630743 257.62468364 61.5883267 254.06341553 63.11401367 C250.86677929 64.48658064 247.67766481 65.87630959 244.48828125 67.265625 C240.19785884 69.13157455 235.90503181 70.99167069 231.60842896 72.84332275 C222.75855458 76.65836578 213.93916966 80.54078953 205.125 84.4375 C202.26311386 85.70203353 199.40111104 86.96630282 196.5390625 88.23046875 C195.83141251 88.54304123 195.12376251 88.85561371 194.39466858 89.17765808 C182.86240837 94.27014853 171.31998747 99.33891151 159.75830078 104.36425781 C157.27815483 105.4425264 154.8000734 106.52533154 152.32373047 107.61230469 C122.13979239 120.8360581 93.46979745 127.79433606 61.65405273 115.39501953 C37.2694647 105.45061848 17.86981692 86.88150383 7.46484375 62.6640625 C1.29168671 47.22293903 -0.30847965 32.68700706 -0.125 16.25 C-0.11494198 14.66667238 -0.10582116 13.08333852 -0.09765625 11.5 C-0.07588495 7.66650912 -0.04151386 3.83332582 0 0 Z M64 48 C62.02 52.455 62.02 52.455 60 57 C69.06073636 66.62703239 80.08617802 73.33103635 93.53125 74.23828125 C94.8409375 74.26277344 96.150625 74.28726563 97.5 74.3125 C98.7890625 74.34988281 100.078125 74.38726562 101.40625 74.42578125 C115.21612223 73.68596667 128.6294543 65.94329576 141 60.375 C143.92770338 59.06565661 146.85632772 57.75839294 149.78515625 56.4515686 C151.59462555 55.64328411 153.40326327 54.83313462 155.2109375 54.02084351 C159.11314665 52.26969834 163.00801624 50.53985263 167 49 C167 48.67 167 48.34 167 48 C133.01 48 99.02 48 64 48 Z " fill="#000000" transform="translate(12,113)"/>
<path d="M0 0 C19.07798751 16.40056853 30.86087298 39.89450767 33.28515625 64.87109375 C33.47138695 70.605378 33.44016043 76.33015206 33.38671875 82.06640625 C33.3785479 83.60554626 33.371137 85.1446905 33.36450195 86.68383789 C33.34679971 90.41301271 33.31886503 94.14202519 33.28515625 97.87109375 C-1.46760609 97.96267798 -36.22034086 98.03314703 -70.97319784 98.07535507 C-75.07742832 98.08035781 -79.18165855 98.08553511 -83.28588867 98.09082031 C-84.51149015 98.09239418 -84.51149015 98.09239418 -85.76185126 98.09399983 C-98.98632128 98.11139824 -112.21072165 98.14293281 -125.43515038 98.17970493 C-139.00776843 98.21713007 -152.58035004 98.23933293 -166.15301758 98.24744773 C-174.52601301 98.25293225 -182.89881154 98.27024558 -191.27174634 98.30275962 C-197.01580409 98.32392694 -202.75976025 98.33028879 -208.50385415 98.32509926 C-211.81643357 98.32254088 -215.12859753 98.32861951 -218.44113159 98.34791565 C-222.03784564 98.36783926 -225.6337197 98.36302318 -229.23045349 98.35211182 C-230.79030988 98.36958887 -230.79030988 98.36958887 -232.38167852 98.38741899 C-241.39306716 98.31361122 -248.51441904 95.70367458 -255.2109375 89.58203125 C-260.49614401 83.56925085 -262.10332244 76.40504655 -261.98828125 68.59375 C-261.1318619 60.06626023 -257.16131141 54.26383499 -250.71484375 48.87109375 C-248.13405773 47.22091695 -245.45530922 45.97331479 -242.65234375 44.74609375 C-241.83765625 44.37468262 -241.02296875 44.00327148 -240.18359375 43.62060547 C-237.36999832 42.34860005 -234.54466582 41.10656508 -231.71484375 39.87109375 C-230.68504395 39.42056641 -229.65524414 38.97003906 -228.59423828 38.50585938 C-223.8754218 36.44730113 -219.15251055 34.39842499 -214.42333984 32.36376953 C-203.17521705 27.52306327 -191.97351662 22.58061282 -180.77734375 17.62109375 C-162.53634783 9.54522451 -144.26991513 1.52978532 -125.96955872 -6.41069031 C-121.66621468 -8.27841425 -117.36820792 -10.15770728 -113.07421875 -12.046875 C-73.83256023 -29.24525557 -33.852599 -28.11406653 0 0 Z M-104.52734375 36.37109375 C-106.48461755 37.24830784 -108.44229717 38.12461704 -110.40039062 39 C-113.99060935 40.60568693 -117.57803935 42.21732853 -121.16333008 43.83398438 C-124.99569065 45.55763411 -128.84647503 47.22994786 -132.71484375 48.87109375 C-132.71484375 49.20109375 -132.71484375 49.53109375 -132.71484375 49.87109375 C-95.75484375 49.87109375 -58.79484375 49.87109375 -20.71484375 49.87109375 C-30.05412199 35.86217639 -39.20898513 28.17252586 -55.52734375 24.18359375 C-74.03826437 22.36879761 -88.02091141 28.90517961 -104.52734375 36.37109375 Z " fill="#000000" transform="translate(273.71484375,282.12890625)"/>
<path d="M0 0 C15.03349786 11.82234994 25.01593593 28.49280513 28.25 47.3125 C28.58 51.6025 28.91 55.8925 29.25 60.3125 C18.69 60.3125 8.13 60.3125 -2.75 60.3125 C-3.41 56.0225 -4.07 51.7325 -4.75 47.3125 C-5.96651251 44.01053749 -7.0727186 41.32714863 -8.75 38.3125 C-9.14832031 37.56355469 -9.54664063 36.81460938 -9.95703125 36.04296875 C-15.64731335 26.41704486 -25.19144757 20.50168734 -35.75 17.3125 C-48.38780465 14.21030413 -60.61752987 16.3702199 -71.66015625 22.94921875 C-81.12912798 29.12617414 -87.16929097 37.70263622 -90.2421875 48.6328125 C-90.9730858 52.48970658 -91.31649691 56.41097218 -91.75 60.3125 C-102.31 60.3125 -112.87 60.3125 -123.75 60.3125 C-122.03821469 36.34750566 -114.45360585 17.36153853 -96.1875 1.125 C-67.8145334 -21.49425981 -29.02201461 -21.67461504 0 0 Z " fill="#000000" transform="translate(206.75,27.6875)"/>
</svg>
